<?xml version="1.0" standalone="no"?>
<!DOCTYPE svg PUBLIC "-//W3C//DTD SVG 20010904//EN"
 "http://www.w3.org/TR/2001/REC-SVG-20010904/DTD/svg10.dtd">
<svg version="1.0" xmlns="http://www.w3.org/2000/svg"
 width="512.000000pt" height="512.000000pt" viewBox="0 0 512.000000 512.000000"
 preserveAspectRatio="xMidYMid meet">

<g transform="translate(0.000000,512.000000) scale(0.100000,-0.100000)"
fill="#000000" stroke="none">
<path d="M1635 4078 c-16 -6 -84 -34 -150 -63 -284 -125 -568 -198 -922 -239
-135 -16 -177 -33 -212 -89 -35 -57 -160 -573 -215 -887 -60 -344 -92 -692
-84 -922 4 -115 3 -140 -10 -150 -36 -30 -42 -72 -42 -295 0 -199 2 -220 21
-260 26 -54 64 -81 131 -93 29 -5 431 -14 893 -20 462 -6 1080 -15 1373 -20
919 -17 1077 -15 1299 15 575 76 984 166 1168 255 224 108 291 304 180 528
-18 37 -43 92 -55 122 -43 110 -111 174 -227 215 -77 27 -250 62 -352 71 -61
6 -71 4 -90 -15 -27 -27 -28 -81 -1 -106 13 -12 64 -25 158 -40 77 -13 150
-26 163 -30 22 -7 21 -9 -17 -29 -37 -19 -52 -20 -254 -18 -253 4 -356 -9
-576 -69 -80 -22 -149 -38 -152 -35 -6 7 21 145 48 247 l21 75 114 -32 c63
-18 136 -36 164 -40 45 -6 52 -4 76 20 22 22 26 33 21 59 -9 46 -23 55 -117
78 -46 10 -118 31 -159 45 -69 23 -77 28 -95 67 -19 38 -33 48 -160 114 -191
99 -223 109 -291 93 -51 -13 -55 -12 -94 14 -24 16 -40 34 -40 46 0 29 -44 54
-84 47 -42 -7 -119 36 -147 82 -10 17 -27 32 -36 33 -10 1 -26 2 -35 2 -31 2
-112 57 -133 89 -15 24 -29 33 -54 35 -36 4 -72 26 -290 180 l-133 94 6 42 c4
22 12 43 18 45 26 9 48 43 48 75 0 26 -7 40 -30 58 -26 20 -32 34 -45 112 -24
136 -51 195 -106 231 -28 18 -55 47 -70 74 -38 71 -105 137 -171 170 -54 27
-71 31 -142 30 -45 0 -94 -5 -111 -11z m-900 -1286 c353 -163 406 -182 550
-197 33 -3 74 -8 92 -11 l32 -5 -25 -67 c-116 -305 85 -637 413 -684 151 -22
294 26 413 138 204 193 217 503 28 709 l-47 52 51 24 c28 13 94 51 146 85 91
59 97 61 119 47 13 -8 23 -20 23 -25 0 -6 -20 -47 -45 -93 -35 -64 -44 -90
-39 -109 12 -48 77 -72 115 -43 8 7 36 46 60 89 l44 76 42 -25 c47 -27 47 -19
-1 -126 -14 -32 -26 -70 -26 -84 0 -35 37 -73 70 -73 41 0 64 24 95 99 15 39
33 71 38 71 14 0 77 -40 77 -50 0 -4 -13 -40 -30 -78 -36 -84 -36 -91 -9 -126
20 -26 57 -34 94 -20 9 4 32 40 51 81 l33 74 29 -15 c28 -14 29 -18 25 -63 -9
-92 -44 -249 -79 -358 -63 -193 -225 -505 -263 -505 -96 0 -1470 106 -1478
114 -2 1 -45 145 -96 318 -91 311 -113 363 -162 400 -13 10 -196 83 -407 162
-259 97 -384 149 -386 160 -2 9 6 67 18 131 l22 114 32 -13 c17 -7 189 -86
381 -174z m1382 -208 c24 -25 57 -71 71 -102 23 -48 27 -71 27 -147 0 -82 -3
-97 -33 -157 -53 -108 -148 -178 -266 -196 -206 -33 -391 112 -413 323 -7 67
19 168 60 227 28 42 37 48 77 53 108 12 251 37 311 54 76 22 95 16 166 -55z
m2849 -922 c9 -59 -17 -123 -68 -167 -120 -102 -513 -197 -1201 -290 -228 -31
-255 -31 -1557 -10 -1802 29 -1967 32 -1979 39 -14 9 -16 392 -1 401 5 3 95
-2 199 -12 l191 -17 25 24 c14 13 25 30 25 38 0 12 11 13 58 8 140 -16 152
-18 152 -31 0 -8 10 -26 23 -40 22 -25 25 -26 362 -55 1371 -119 2070 -156
2430 -131 500 36 987 141 1240 268 88 45 90 44 101 -25z"/>
</g>
</svg>
